<svg width="43" height="32" viewBox="0 0 43 32" fill="none" xmlns="http://www.w3.org/2000/svg">
<g clip-path="url(#clip0_158_4205)">
<path fill-rule="evenodd" clip-rule="evenodd" d="M21.2816 32L0 10.571L6.10611 0H36.4539L42.5631 10.571L25.3213 27.932L21.2862 24.3163L6.87906 9.8176L9.48755 5.30656L33.1422 5.42354L35.6825 9.8176L25.0471 20.5274L23.3076 18.732L32.5675 9.4058L31.7186 7.93332H10.8414L9.99253 9.4058L21.2738 20.7786L25.0905 24.622L39.4481 10.1561L35.0381 2.50977H7.52189L3.11347 10.1561L21.28 28.4607L23.0381 30.2311L21.2816 32Z" fill="#fff"/>
<path d="M21.2843 14.8854C22.3921 14.8854 23.2902 13.9811 23.2902 12.8654C23.2902 11.7498 22.3921 10.8455 21.2843 10.8455C20.1764 10.8455 19.2783 11.7498 19.2783 12.8654C19.2783 13.9811 20.1764 14.8854 21.2843 14.8854Z" fill="#fff"/>
</g>
<defs>
<clipPath id="clip0_158_4205">
<rect width="42.5631" height="32" fill="white"/>
</clipPath>
</defs>
</svg>
