<svg width="32" height="30" viewBox="0 0 32 30" fill="none" xmlns="http://www.w3.org/2000/svg">
<path d="M31.4087 13.1431C30.5479 10.2771 28.8014 7.76538 26.4845 5.63628C23.9799 3.34776 21.0076 1.61543 17.8901 0.308207C17.6386 0.201929 17.3871 0.0991929 17.132 0C13.2954 4.5983 0 8.03108 0 17.674C0 21.4434 2.38417 24.9683 5.88072 26.3818C8.05588 27.1186 10.3975 26.9805 12.4841 26.031C14.4999 25.1135 16.0374 23.4945 17.2737 21.6914C18.5809 19.789 19.5729 17.6988 20.8163 15.754C21.9677 13.9472 23.4414 12.1476 25.6307 11.6374C27.6146 11.1769 29.9633 11.6906 31.4123 13.1431H31.4087ZM31.4937 15.0986C30.6116 13.3379 28.7624 12.5798 26.86 12.6719C25.0249 12.7569 23.6858 13.926 22.6656 15.3607C21.5107 16.9868 20.6994 18.8396 19.7571 20.5896C18.8466 22.2759 17.8689 23.9267 16.5617 25.3367C15.1092 26.9025 13.2848 28.0822 11.2407 28.7022C12.1866 29.3859 13.5009 29.5382 14.6309 29.5807C15.9098 29.6303 17.2029 29.5134 18.464 29.2867C20.7632 28.8757 23.2466 28.068 24.947 26.3888C22.2936 26.4243 20.1539 24.6388 19.9661 21.95C21.6736 24.0153 24.2527 24.8124 26.8388 24.0755C29.1025 23.4308 30.9198 21.6418 31.6532 19.4135C32.1172 17.9964 32.1633 16.4589 31.4973 15.0986H31.4937Z" fill="#0058AB"/>
</svg>
