<svg width="50" height="48" viewBox="0 0 50 48" fill="none" xmlns="http://www.w3.org/2000/svg">
<path d="M22.3259 1.91188C23.4195 -0.303961 26.5789 -0.303961 27.6725 1.91188L33.7057 14.1326L47.194 16.0916C49.6401 16.4479 50.6171 19.4539 48.8464 21.1785L39.0876 30.6912L41.3913 44.1209L41.4216 44.3474C41.6518 46.6691 39.1847 48.3779 37.0661 47.2634V47.2644L24.9987 40.9207L12.9323 47.2644C10.7445 48.4146 8.19054 46.5572 8.60711 44.1218H8.60808L10.9108 30.6912L1.15203 21.1785V21.1775C-0.618113 19.4498 0.362451 16.4477 2.80535 16.0916L16.2927 14.1316L22.3259 1.91188ZM26.3278 2.57595C25.7844 1.47491 24.214 1.47491 23.6706 2.57595L17.4636 15.1502C17.3543 15.3713 17.1432 15.5248 16.8991 15.5603L3.02117 17.5759C1.80608 17.7532 1.32003 19.2457 2.19988 20.1043L12.2409 29.8924C12.4174 30.0645 12.4983 30.3124 12.4567 30.5554L10.0866 44.3748C9.8793 45.5867 11.1487 46.5078 12.235 45.9363L24.6462 39.4119L24.7292 39.3748C24.814 39.3426 24.9045 39.3259 24.9958 39.3259H25.0036L25.0944 39.3308C25.1843 39.3418 25.2716 39.3695 25.3522 39.4119L37.7643 45.9363L37.8669 45.9861C38.8954 46.4354 40.0391 45.6022 39.9284 44.4881L39.9128 44.3758L37.5427 30.5554C37.5011 30.3123 37.5818 30.0646 37.7585 29.8924L47.7995 20.1043V20.1033C48.6785 19.2469 48.1942 17.7531 46.9772 17.5759V17.575L33.0993 15.5603C32.8553 15.5247 32.6441 15.3713 32.5348 15.1502L26.3278 2.57595Z" fill="#272936"/>
</svg>
