<svg width="44" height="49" viewBox="0 0 44 49" fill="none" xmlns="http://www.w3.org/2000/svg">
<path d="M34.4053 27.7173V22.2524C34.4053 21.5078 33.8029 20.905 33.0605 20.9048H3.09473C2.35388 20.9049 1.75 21.5063 1.75 22.2524V39.2749C1.75 43.1746 4.90315 46.3325 8.78906 46.3325H24.6338C25.048 46.3325 25.3838 46.6683 25.3838 47.0825C25.3838 47.4967 25.048 47.8325 24.6338 47.8325H8.78906C4.07145 47.8325 0.25 43.9997 0.25 39.2749V22.2524C0.25 20.6778 1.52558 19.4049 3.09473 19.4048H33.0605C34.6336 19.405 35.9053 20.6818 35.9053 22.2524V27.7173C35.905 28.1313 35.5693 28.4673 35.1553 28.4673C34.7412 28.4673 34.4055 28.1313 34.4053 27.7173Z" fill="#272936"/>
<path d="M29.6328 20.1548V13.6636C29.6328 7.27428 24.4449 2.07861 18.0742 2.07861C11.7035 2.07863 6.51562 7.27429 6.51562 13.6636V20.1548C6.51562 20.569 6.17984 20.9048 5.76562 20.9048C5.35141 20.9048 5.01562 20.569 5.01562 20.1548V13.6636C5.01562 6.44875 10.8722 0.578635 18.0742 0.578613C25.2762 0.578613 31.1328 6.44874 31.1328 13.6636V20.1548C31.1328 20.569 30.797 20.9048 30.3828 20.9048C29.9687 20.9047 29.6328 20.569 29.6328 20.1548Z" fill="#272936"/>
<path d="M21.0333 31.1601C21.0332 29.5262 19.7161 28.2033 18.0909 28.1933L17.9327 28.1963C16.3889 28.2676 15.1262 29.5859 15.1173 31.1396V31.1406C15.1108 32.2021 15.6636 33.1349 16.4991 33.665C16.716 33.8026 16.8477 34.042 16.8477 34.2988V38.5849H19.3028V34.2988C19.3028 34.0422 19.4339 33.8026 19.6505 33.665C20.4824 33.1367 21.0333 32.2123 21.0333 31.1601ZM22.5333 31.1601C22.5333 32.5964 21.8512 33.8683 20.8028 34.6836V39.3349C20.8028 39.7491 20.467 40.0849 20.0528 40.0849H16.0977C15.6835 40.0849 15.3477 39.7491 15.3477 39.3349V34.6845C14.2925 33.8644 13.6084 32.5793 13.6173 31.1308C13.6308 28.7842 15.5173 26.8067 17.8634 26.6982C20.4216 26.5803 22.5332 28.6246 22.5333 31.1601Z" fill="#272936"/>
<path d="M38.1124 35.4968C38.3939 35.1931 38.8682 35.1754 39.172 35.4568C39.4757 35.7382 39.4944 36.2125 39.213 36.5164L33.5792 42.5994C33.3033 42.8973 32.8398 42.9215 32.5343 42.654L29.5294 40.0222C29.2178 39.7493 29.1862 39.2752 29.4591 38.9636C29.7319 38.6521 30.2061 38.6206 30.5177 38.8933L32.9738 41.0447L38.1124 35.4968Z" fill="#272936"/>
<path d="M42.251 39.0767C42.251 34.6015 38.6232 30.9733 34.1475 30.9731C29.6716 30.9731 26.043 34.6014 26.043 39.0767C26.0431 43.5518 29.6717 47.1802 34.1475 47.1802C38.6231 47.18 42.2509 43.5517 42.251 39.0767ZM43.751 39.0767C43.7509 44.3803 39.4514 48.68 34.1475 48.6802C28.8434 48.6802 24.5431 44.3804 24.543 39.0767C24.543 33.7728 28.8433 29.4731 34.1475 29.4731C39.4515 29.4733 43.751 33.7729 43.751 39.0767Z" fill="#272936"/>
</svg>
